<svg role="img" viewBox="0 0 24 24" xmlns="http://www.w3.org/2000/svg">
    <path d="M19.535 10.055c-2.253-.827-7.345.043-6.8-3.868 1.766.526 7.075-1.497 7.37-2.328-.27-.536.27-1.345-.082-1.197-1.793.749-5.056-1.47-6.48-.814-1.07.497-3.415-.848-3.415-.848.713.361.635 1.37.653 1.458 0 0-1.38.135-3.703-.958 1.366 1.166 2.01 1.397 1.98 1.771-.444-.174-2.742-.961-5.205 2.354 4.387-2.528 5.67-.787 5.67-.787.283 2.91.422 4.107 2.807 5.756 1.283.893 7.205-.54 7.205-.54Zm-6.744 3.255c.265 5.06-1.427 9.69-1.427 9.69 3.99-7.023 4.36-9.029 4.238-9.316-.087.109-2.267.026-2.811-.374Zm-2.959 0c-.24.674 6.74.683 9.447.004 1.227-.309 1.074-3.411.017-3.29-3.603.405-5.235.566-9.381.079-.41-.053.504 1.558-.083 3.207Z" />
</svg>
